# xmcd
#
# Track frame offsets: 
#        150
#        21660
#        39275
#        58470
#        78407
#        99566
#        114399
#        134562
#        151433
#        169130
#        190945
#        210066
#        228893
#        248764
#
# Disc length: 3566 seconds
#
# Revision: 1
# Processed by: cddbd v1.5.2PL0 Copyright (c) Steve Scherf et al.
# Submitted via: ExactAudioCopy v0.99pb4
#
DISCID=b80dec0e
DTITLE=Bandari - One Day in Spring
DYEAR=1999
DGENRE=New Age
TTITLE0=One Day in Spring
TTITLE1=The Miracle of Your Eyes
TTITLE2=Morning Air
TTITLE3=Breath of the Wind
TTITLE4=Fairyland
TTITLE5=Beatrix
TTITLE6=Mountain Stream
TTITLE7=Snowdreams
TTITLE8=Windmills
TTITLE9=Heaven's Gate
TTITLE10=Earth Melody
TTITLE11=My Song for You
TTITLE12=Melody of Hope
TTITLE13=Nebula
EXTD=
EXTT0=
EXTT1=
EXTT2=
EXTT3=
EXTT4=
EXTT5=
EXTT6=
EXTT7=
EXTT8=
EXTT9=
EXTT10=
EXTT11=
EXTT12=
EXTT13=
PLAYORDER=
